# AST/ASF file generated using VICON BodyLanguage
# -----------------------------------------------
:version 1.10
:name VICON
:units
  mass 1.0
  length 0.45
  angle deg
:documentation
   .ast/.asf automatically generated from VICON data using
   VICON BodyBuilder and BodyLanguage model FoxedUp or BRILLIANT.MOD
:root
   order TX TY TZ RX RY RZ
   axis XYZ
   position 0 0 0  
   orientation 0 0 0 
:bonedata
  begin
     id 1 
     name lhipjoint
     direction 0.714689 -0.624256 0.315473 
     length 2.45343 
     axis 0 0 0  XYZ
  end
  begin
     id 2 
     name lfemur
     direction 0.34202 -0.939693 0  
     length 6.59069  
     axis 0 0 20  XYZ
    dof rx ry rz
    limits (-160.0 20.0)
           (-70.0 70.0)
           (-60.0 70.0)
  end
  begin
     id 3 
     name ltibia
     direction 0.34202 -0.939693 0   
     length 6.73476   
     axis 0 0 20   XYZ
    dof rx
    limits (-10.0 170.0)
  end
  begin
     id 4 
     name lfoot
     direction 0.0718085 -0.197292 0.977711   
     length 1.52607   
     axis -90 7.62852e-016 20   XYZ
    dof rx rz
    limits (-45.0 90.0)
           (-70.0 20.0)
  end
  begin
     id 5 
     name ltoes
     direction 1.53553e-011 -4.22024e-011 1   
     length 0.777832   
     axis -90 7.62852e-016 20   XYZ
    dof rx
    limits (-90.0 20.0)
  end
  begin
     id 6 
     name rhipjoint
     direction -0.727419 -0.612432 0.309497   
     length 2.50079  
     axis 0 0 0  XYZ 
  end
  begin
     id 7 
     name rfemur
     direction -0.34202 -0.939693 0   
     length 6.51665   
     axis 0 0 -20   XYZ
    dof rx ry rz
    limits (-160.0 20.0)
           (-70.0 70.0)
           (-70.0 60.0)
  end
  begin
     id 8 
     name rtibia
     direction -0.34202 -0.939693 0   
     length 6.48919   
     axis 0 0 -20   XYZ
    dof rx
    limits (-10.0 170.0)
 end
 begin
     id 9 
     name rfoot
     direction -0.112205 -0.308282 0.944655   
     length 1.68717  
     axis -90 -7.62852e-016 -20   XYZ
    dof rx rz
    limits (-45.0 90.0)
           (-20.0 70.0)
  end
  begin
     id 10 
     name rtoes
     direction -1.53583e-011 -4.21993e-011 1   
     length 0.846859   
     axis -90 -7.62852e-016 -20   XYZ
    dof rx
    limits (-90.0 20.0)
  end
  begin
     id 11 
     name lowerback
     direction -0.00119603 0.996364 -0.0851956   
     length 1.67242   
     axis 0 0 0   XYZ
    dof rx ry rz
    limits (-20.0 45.0)
           (-30.0 30.0)
           (-30.0 30.0)
  end
  begin
     id 12 
     name upperback
     direction -0.00531001 0.998318 0.0577248   
     length 1.64819   
     axis 0 0 0   XYZ
    dof rx ry rz
    limits (-20.0 45.0)
           (-30.0 30.0)
           (-30.0 30.0)
  end
  begin
     id 13 
     name thorax
     direction -0.00653676 0.995132 0.0983291   
     length 1.67429   
     axis 0 0 0   XYZ
    dof rx ry rz
    limits (-20.0 45.0)
           (-30.0 30.0)
           (-30.0 30.0)
  end
  begin
     id 14 
     name lowerneck
     direction 0.0141424 0.999886 0.00525412   
     length 1.59623   
     axis 0 0 0   XYZ
    dof rx ry rz
    limits (-20.0 45.0)
           (-30.0 30.0)
           (-30.0 30.0)
  end
  begin
     id 15 
     name upperneck
     direction -0.0640064 0.987178 -0.146232   
     length 1.59576   
     axis 0 0 0   XYZ
    dof rx ry rz
    limits (-20.0 45.0)
           (-30.0 30.0)
           (-30.0 30.0)
  end
  begin
     id 16
     name head
     direction -0.0222942 0.998496 -0.0500859  
     length 1.60959  
     axis 0 0 0   XYZ
    dof rx ry rz
    limits (-20.0 45.0)
           (-30.0 30.0)
           (-30.0 30.0)
  end
  begin
     id 17 
     name lclavicle
     direction 0.908549 0.392612 0.142806  
     length 2.80649  
     axis 0 0 0   XYZ
    dof ry rz
    limits (-20.0 10.0)
           (0.0 20.0)
  end
  begin
     id 18 
     name lhumerus
     direction 1 -4.48968e-011 1.08832e-028   
     length 4.2884   
     axis -180 -30 -90   XYZ
    dof rx ry rz
    limits (-60.0 90.0)
           (-90.0 90.0)
           (-90.0 90.0)
  end
  begin
     id 19
     name lradius
     direction 1 -4.48952e-011 -3.02642e-028   
     length 3.06552   
     axis -180 -30 -90   XYZ
    dof rx
    limits (-10.0 170.0)
  end
  begin
     id 20
     name lwrist
     direction 1 -4.49014e-011 1.58672e-027   
     length 1.53276   
     axis -1.65735e-015 90 90   XYZ
    dof ry
    limits (-180.0 0.0)
 end
  begin
     id 21 
     name lhand
     direction 1 -4.48928e-011 3.17344e-027   
     length 0.753045   
     axis -2.02492e-015 90 90   XYZ
    dof rx rz
    limits (-90.0 90.0)
           (-45.0 45.0)
  end
  begin
     id 22 
     name lfingers
     direction 1 -4.48958e-011 6.34687e-027   
     length 0.607124   
     axis -4.04985e-015 90 90   XYZ
    dof rx
    limits (0.0 90.0)
  end
  begin
     id 23
     name lthumb
     direction 0.707107 -6.34905e-011 0.707107   
     length 0.871712   
     axis -90 45 2.85299e-015   XYZ
    dof rx rz
    limits (-45.0 45.0)
           (-45.0 45.0)
  end
  begin
     id 24 
     name rclavicle
     direction -0.885098 0.45949 0.0739604   
     length 2.9478  
     axis 0 0 0   XYZ 
    dof ry rz
    limits (-10.0 20.0)
           (-20.0 0.0)
  end
  begin
     id 25 
     name rhumerus
     direction -1 -4.4898e-011 -2.61739e-027  
     length 4.52172   
     axis -180 30 90   XYZ
    dof rx ry rz
    limits (-90.0 60.0)
           (-90.0 90.0)
           (-90.0 90.0)
  end
  begin
     id 26 
     name rradius
     direction -1 -4.48945e-011 9.02552e-028   
     length 2.8914   
     axis -180 30 90   XYZ
    dof rx
    limits (-10.0 170.0)
  end
  begin
     id 27 
     name rwrist
     direction -1 -4.49018e-011 1.58672e-027   
     length 1.4457   
     axis -1.65735e-015 -90 -90   XYZ
    dof ry
    limits (-180.0 0.0)
  end
  begin
     id 28
     name rhand
     direction -1 -4.48825e-011 3.17344e-027   
     length 0.680541   
     axis -2.02492e-015 -90 -90   XYZ
    dof rx rz
    limits (-90.0 90.0)
           (-45.0 45.0)
  end
  begin
     id 29
     name rfingers
     direction -1 -4.49067e-011 6.34687e-027   
     length 0.54867   
     axis -4.04985e-015 -90 -90   XYZ
    dof rx
    limits (0.0 90.0)
  end
  begin
     id 30
     name rthumb
     direction -0.707107 -6.34833e-011 0.707107   
     length 0.787783   
     axis -90 -45 -2.85299e-015   XYZ
    dof rx rz
    limits (-45.0 45.0)
           (-45.0 45.0)
  end
:hierarchy
  begin
    root lhipjoint rhipjoint lowerback
    lhipjoint lfemur
    lfemur ltibia
    ltibia lfoot
    lfoot ltoes
    rhipjoint rfemur
    rfemur rtibia
    rtibia rfoot
    rfoot rtoes
    lowerback upperback
    upperback thorax
    thorax lowerneck lclavicle rclavicle
    lowerneck upperneck
    upperneck head
    lclavicle lhumerus
    lhumerus lradius
    lradius lwrist
    lwrist lhand lthumb
    lhand lfingers
    rclavicle rhumerus
    rhumerus rradius
    rradius rwrist
    rwrist rhand rthumb
    rhand rfingers
  end

#!OML:ASF E:\emotionWalksFemale\Project 1\Capture day 1\Session 1\Female1.ASF
:FULLY-SPECIFIED
:DEGREES
347
root 25.4547 15.4462 19.8275 182.027 4.41121 186.081
lowerback 9.09435 3.0991 4.0361
upperback -3.11167 4.76949 0.920569
thorax -8.15618 2.16129 -2.04258
lowerneck -9.32464 6.23467 2.36552
upperneck 13.0287 8.2729 -2.48345
head 5.66902 3.88966 -0.529661
rclavicle 2.48248e-014 2.10712e-014
rhumerus -33.7427 7.19207 -74.1553
rradius 32.668
rwrist 15.7307
rhand -5.46867 -53.1399
rfingers 7.12502
rthumb 20.3431 -82.0944
lclavicle 2.48248e-014 2.10712e-014
lhumerus -50.6372 8.48566 71.0261
lradius 40.1478
lwrist -7.94833
lhand -6.59683 -29.8079
lfingers 7.12502
lthumb 19.2585 -0.741531
rfemur 1.67855 20.7431 31.6436
rtibia 14.7759
rfoot -23.4539 -38.7849
rtoes 3.3008
lfemur -29.2386 1.8262 -20.5683
ltibia 62.3144
lfoot -13.771 3.50047
ltoes -8.76717
348
root 25.4933 15.4336 19.729 182.155 3.97266 186.002
lowerback 9.06923 3.19368 4.06164
upperback -3.28037 4.8962 0.800392
thorax -8.30405 2.21219 -2.20715
lowerneck -8.77582 6.12028 2.73013
upperneck 12.736 8.11085 -2.82065
head 5.51015 3.81332 -0.72625
rclavicle -5.2737e-014 -2.0276e-014
rhumerus -33.8057 7.13158 -74.156
rradius 33.0659
rwrist 15.8081
rhand -5.09881 -53.2724
rfingers 7.12502
rthumb 20.6985 -82.1886
lclavicle -5.2737e-014 -2.0276e-014
lhumerus -51.0398 8.15195 70.9016
lradius 40.4181
lwrist -7.77837
lhand -6.989 -29.7344
lfingers 7.12502
lthumb 18.8814 -0.630816
rfemur 2.02877 20.5526 31.8513
rtibia 14.693
rfoot -24.3719 -38.9018
rtoes 5.39859
lfemur -29.9462 1.92348 -21.1349
ltibia 60.7241
lfoot -14.1091 4.73387
ltoes -10.9489
349
root 25.5324 15.4244 19.6309 182.189 3.62582 185.976
lowerback 9.11935 3.25219 4.02045
upperback -3.25143 4.96975 0.80054
thorax -8.30058 2.25007 -2.19754
lowerneck -8.76974 6.10416 2.66022
upperneck 12.554 8.10229 -2.8231
head 5.44921 3.81153 -0.719385
rclavicle -2.31802e-014 2.78299e-015
rhumerus -33.3348 7.2295 -74.0526
rradius 33.2478
rwrist 15.9061
rhand -4.75994 -53.5507
rfingers 7.12502
rthumb 21.0241 -82.4311
lclavicle -2.31802e-014 2.78299e-015
lhumerus -51.1603 8.27295 70.8166
lradius 40.5778
lwrist -7.76227
lhand -7.18888 -30.3566
lfingers 7.12502
lthumb 18.6892 -1.23439
rfemur 2.63707 20.4701 32.1571
rtibia 14.2859
rfoot -24.7672 -39.1304
rtoes 6.73692
lfemur -30.5439 2.00426 -21.5563
ltibia 59.0605
lfoot -14.0137 5.46151
ltoes -10.1618
350
root 25.5694 15.4234 19.5326 182.167 3.23873 186.081
lowerback 9.19274 3.26979 4.12344
upperback -3.07476 5.00205 0.830557
thorax -8.14421 2.26676 -2.22551
lowerneck -9.26042 6.14548 2.56515
upperneck 12.5795 8.16121 -2.70335
head 5.53259 3.8443 -0.646316
rclavicle 7.13621e-014 9.54166e-015
rhumerus -32.5497 7.39321 -74.0351
rradius 33.3831
rwrist 15.5117
rhand -4.8609 -53.3664
rfingers 7.12502
rthumb 20.9271 -82.2576
lclavicle 7.13621e-014 9.54166e-015
lhumerus -50.959 8.65576 70.6469
lradius 40.5515
lwrist -7.78214
lhand -6.94149 -30.6977
lfingers 7.12502
lthumb 18.9271 -1.59856
rfemur 3.41488 20.2164 32.6072
rtibia 13.6177
rfoot -24.533 -39.4927
rtoes 6.20066
lfemur -31.1095 2.02325 -21.7606
ltibia 57.3111
lfoot -14.461 5.74554
ltoes -9.0758
351
root 25.6028 15.4221 19.4295 182.166 2.75889 186.169
lowerback 9.13906 3.27471 4.32503
upperback -3.06757 5.02928 0.805831
thorax -8.08507 2.27142 -2.36286
lowerneck -8.98043 6.11491 2.63354
upperneck 12.4235 8.11332 -2.72431
head 5.439 3.82817 -0.678679
rclavicle 9.64067e-015 -1.27222e-014
rhumerus -32.2483 7.50616 -74.1306
rradius 33.5511
rwrist 14.9829
rhand -5.28712 -52.5647
rfingers 7.12502
rthumb 20.5175 -81.5005
lclavicle 9.64067e-015 -1.27222e-014
lhumerus -51.1225 8.74687 70.4955
lradius 40.6084
lwrist -7.40956
lhand -6.68215 -30.2797
lfingers 7.12502
lthumb 19.1765 -1.20516
rfemur 4.35347 19.9347 33.0302
rtibia 12.624
rfoot -24.2023 -39.9235
rtoes 5.78476
lfemur -31.6202 1.90777 -21.9721
ltibia 55.4684
lfoot -15.5815 6.00129
ltoes -9.43521
352
root 25.6376 15.4163 19.3251 182.161 2.36925 186.281
lowerback 9.10118 3.30843 4.43814
upperback -3.01123 5.08674 0.832753
thorax -7.99176 2.29866 -2.40037
lowerneck -8.90176 6.08969 2.69146
upperneck 12.2793 8.09285 -2.87953
head 5.3892 3.81413 -0.741741
rclavicle 6.82359e-014 3.53837e-014
rhumerus -31.7534 7.51951 -74.1566
rradius 33.6456
rwrist 14.7692
rhand -5.24546 -52.7639
rfingers 7.12502
rthumb 20.5576 -81.6954
lclavicle 6.82359e-014 3.53837e-014
lhumerus -51.1865 8.9046 70.4566
lradius 40.6006
lwrist -7.01798
lhand -6.85491 -30.1989
lfingers 7.12502
lthumb 19.0104 -1.10788
rfemur 5.39845 19.8888 33.5119
rtibia 11.4192
rfoot -23.1786 -40.5704
rtoes 5.62029
lfemur -32.0337 1.84603 -22.1243
ltibia 53.5523
lfoot -16.0878 6.56401
ltoes -10.7165
353
root 25.6713 15.4117 19.222 182.251 2.01642 186.397
lowerback 9.07111 3.33816 4.49581
upperback -2.96504 5.13502 0.879146
thorax -7.92093 2.32428 -2.38638
lowerneck -9.10283 6.11643 2.52824
upperneck 12.2585 8.13956 -2.76692
head 5.40632 3.83798 -0.671545
rclavicle 1.66078e-014 1.66979e-014
rhumerus -31.1354 7.57016 -74.17
rradius 33.7451
rwrist 14.7393
rhand -5.08013 -53.7769
rfingers 7.12502
rthumb 20.7164 -82.6911
lclavicle 1.66078e-014 1.66979e-014
lhumerus -51.1297 9.17826 70.3645
lradius 40.4849
lwrist -6.92259
lhand -7.23175 -30.5784
lfingers 7.12502
lthumb 18.6479 -1.45226
rfemur 6.33204 19.8364 33.9483
rtibia 10.173
rfoot -22.0871 -41.0948
rtoes 5.92147
lfemur -32.4919 1.76037 -22.2363
ltibia 51.562
lfoot -16.2137 7.29733
ltoes -12.0229
354
root 25.7001 15.4084 19.1183 182.401 1.62424 186.427
lowerback 9.0135 3.32805 4.53156
upperback -2.96195 5.12362 0.883028
thorax -7.88247 2.31891 -2.39607
lowerneck -9.28478 6.13236 2.31756
upperneck 12.2117 8.17277 -2.60906
head 5.40762 3.85699 -0.582095
rclavicle -2.70223e-016 -1.98785e-015
rhumerus -30.522 7.77589 -74.2773
rradius 33.7947
rwrist 14.4653
rhand -5.2071 -54.2576
rfingers 7.12502
rthumb 20.5944 -83.1851
lclavicle -2.70223e-016 -1.98785e-015
lhumerus -51.1048 9.51429 70.1616
lradius 40.42
lwrist -6.92974
lhand -7.41931 -30.6804
lfingers 7.12502
lthumb 18.4675 -1.53699
rfemur 7.23492 19.0023 34.1551
rtibia 8.78913
rfoot -21.5704 -40.7412
rtoes 6.79328
lfemur -32.9443 1.54095 -22.4112
ltibia 49.4951
lfoot -16.2312 7.90148
ltoes -12.9777
355
root 25.7255 15.4071 19.0079 182.426 1.37726 186.444
lowerback 9.00868 3.38016 4.60151
upperback -2.98918 5.19771 0.828274
thorax -7.89295 2.34906 -2.50358
lowerneck -9.32031 6.09478 2.88563
upperneck 12.2702 8.12513 -3.25449
head 5.48215 3.81156 -0.871685
rclavicle -5.93496e-014 -1.39149e-014
rhumerus -30.2229 7.80154 -74.4741
rradius 33.9226
rwrist 14.2835
rhand -5.45662 -54.1266
rfingers 7.12502
rthumb 20.3546 -83.0798
lclavicle -5.93496e-014 -1.39149e-014
lhumerus -51.2192 9.51042 69.9776
lradius 40.4391
lwrist -6.86299
lhand -7.37623 -30.4608
lfingers 7.12502
lthumb 18.5089 -1.32138
rfemur 8.37699 18.2731 34.3553
rtibia 7.22927
rfoot -20.6565 -40.5264
rtoes 6.76642
lfemur -33.1351 1.361 -22.5431
ltibia 47.3642
lfoot -15.784 8.66975
ltoes -15.4251
356
root 25.7478 15.41 18.8981 182.439 1.17074 186.449
lowerback 8.9333 3.44748 4.66539
upperback -2.96621 5.28302 0.765054
thorax -7.80685 2.3884 -2.61043
lowerneck -9.4019 6.09497 3.66646
upperneck 12.3851 8.12061 -4.06834
head 5.59915 3.78294 -1.24234
rclavicle 4.0549e-014 2.78299e-015
rhumerus -29.8993 7.67721 -74.6443
rradius 34.0485
rwrist 14.3587
rhand -5.73328 -53.9851
rfingers 7.12502
rthumb 20.0887 -82.9665
lclavicle 4.0549e-014 2.78299e-015
lhumerus -51.2572 9.42447 69.8716
lradius 40.3901
lwrist -6.79632
lhand -7.40392 -30.4183
lfingers 7.12502
lthumb 18.4823 -1.27631
rfemur 9.76771 17.5832 34.4946
rtibia 5.18186
rfoot -19.0096 -40.3861
rtoes 5.67503
lfemur -33.257 1.08746 -22.6238
ltibia 45.1995
lfoot -15.9755 9.4892
ltoes -14.8214
357
root 25.7702 15.4068 18.7933 182.504 0.811107 186.44
lowerback 8.86578 3.44643 4.63282
upperback -2.91633 5.27143 0.772084
thorax -7.7182 2.3882 -2.57601
lowerneck -9.46033 6.14559 3.55374
upperneck 12.24 8.18982 -3.94266
head 5.55622 3.82499 -1.17966
rclavicle 1.68346e-015 7.95139e-016
rhumerus -29.3128 7.72302 -74.7376
rradius 34.0513
rwrist 14.4825
rhand -5.60597 -54.1365
rfingers 7.12502
rthumb 20.2111 -83.105
lclavicle 1.68346e-015 7.95139e-016
lhumerus -51.1669 9.8001 69.6783
lradius 40.1071
lwrist -7.081
lhand -7.62842 -30.8207
lfingers 7.12502
lthumb 18.2663 -1.6584
rfemur 12.636 16.7537 34.5174
rtibia 4.77083e-015
rfoot -15.8686 -40.1189
rtoes 5.56773
lfemur -33.4342 0.653703 -22.6836
ltibia 43.0302
lfoot -16.1283 10.2167
ltoes -12.2405
358
root 25.7928 15.4004 18.6831 182.486 0.442966 186.531
lowerback 8.94636 3.43128 4.64658
upperback -2.92495 5.26683 0.846515
thorax -7.78069 2.38613 -2.5116
lowerneck -9.24744 6.16684 2.68971
upperneck 11.8155 8.22306 -3.01238
head 5.31227 3.88207 -0.767198
rclavicle -3.66447e-014 -5.56597e-015
rhumerus -28.8645 7.93334 -74.8548
rradius 33.975
rwrist 14.7399
rhand -5.55945 -53.5383
rfingers 7.12502
rthumb 20.2558 -82.5021
lclavicle -3.66447e-014 -5.56597e-015
lhumerus -51.2649 10.3207 69.3699
lradius 39.8562
lwrist -7.58887
lhand -7.70892 -31.0465
lfingers 7.12502
lthumb 18.1889 -1.87691
rfemur 13.0421 15.8988 34.7656
rtibia 0
rfoot -16.3284 -39.7357
rtoes 6.54569
lfemur -33.4598 0.147313 -22.5527
ltibia 40.8661
lfoot -16.3106 11.0312
ltoes -9.80373
359
root 25.8131 15.4017 18.5679 182.479 0.225757 186.593
lowerback 8.95041 3.44958 4.68476
upperback -2.9491 5.30131 0.872418
thorax -7.80608 2.40144 -2.51184
lowerneck -9.69623 6.14622 3.26694
upperneck 12.3609 8.21101 -3.77852
head 5.61561 3.82902 -1.0731
rclavicle -2.96997e-014 8.34896e-015
rhumerus -28.5018 8.23097 -75.0861
rradius 33.9299
rwrist 14.8685
rhand -5.96357 -52.4693
rfingers 7.12502
rthumb 19.8674 -81.4739
lclavicle -2.96997e-014 8.34896e-015
lhumerus -51.511 10.4951 69.1713
lradius 39.8856
lwrist -7.66358
lhand -7.5365 -30.8764
lfingers 7.12502
lthumb 18.3548 -1.72232
rfemur 13.4331 15.1951 34.9586
rtibia -4.13472e-014
rfoot -16.1304 -39.3655
rtoes 6.92353
lfemur -33.4301 -0.484472 -22.3338
ltibia 38.7025
lfoot -16.3049 12.4417
ltoes -10.338
